<svg id="Group_9315" data-name="Group 9315" xmlns="http://www.w3.org/2000/svg" width="32" height="32" viewBox="0 0 32 32">
  <path id="Path_17818" data-name="Path 17818" d="M0,0H32V32H0Z" fill="none"/>
  <path id="Path_17819" data-name="Path 17819" d="M19.536,27V17.712h3.111l.465-3.611H19.536V11.8c0-1.045.291-1.759,1.789-1.759h1.912V6.809a25.587,25.587,0,0,0-2.787-.143c-2.756,0-4.643,1.683-4.643,4.773V14.1H12.691v3.611h3.117V27H4.333A1.333,1.333,0,0,1,3,25.667V4.333A1.333,1.333,0,0,1,4.333,3H25.667A1.333,1.333,0,0,1,27,4.333V25.667A1.333,1.333,0,0,1,25.667,27Z" transform="translate(1 1)" fill="#12d8a0"/>
</svg>
