<svg xmlns="http://www.w3.org/2000/svg" xmlns:xlink="http://www.w3.org/1999/xlink" width="507" height="474" viewBox="0 0 507 474">
  <defs>
    <filter id="Rectangle_10740" x="33" y="0" width="474" height="474" filterUnits="userSpaceOnUse">
      <feOffset dy="3" input="SourceAlpha"/>
      <feGaussianBlur stdDeviation="45" result="blur"/>
      <feFlood flood-opacity="0.039"/>
      <feComposite operator="in" in2="blur"/>
      <feComposite in="SourceGraphic"/>
    </filter>
    <linearGradient id="linear-gradient" x1="-0.358" y1="-0.227" x2="1.331" y2="1.211" gradientUnits="objectBoundingBox">
      <stop offset="0" stop-color="#e7c007"/>
      <stop offset="1" stop-color="#fd8b07"/>
    </linearGradient>
    <linearGradient id="linear-gradient-2" x1="-1.516" y1="-0.289" x2="1.809" y2="1.237" xlink:href="#linear-gradient"/>
    <linearGradient id="linear-gradient-3" x1="0.235" y1="0.242" x2="3.56" y2="1.769" xlink:href="#linear-gradient"/>
    <linearGradient id="linear-gradient-4" x1="-2.015" y1="-6.006" x2="1.754" y2="4.116" xlink:href="#linear-gradient"/>
  </defs>
  <g id="Group_9306" data-name="Group 9306" transform="translate(-1014 -672)">
    <text id="Or_scan_to_download_MATADOR" data-name="Or scan to
download
MATADOR" transform="translate(1138 814)" fill="#aeffe9" font-size="24" font-family="Poppins-Regular, Poppins"><tspan x="-123" y="0">Or scan to</tspan><tspan x="-120" y="32">download</tspan><tspan x="-116" y="64">MATADOR</tspan></text>
    <g id="right-arrow" transform="translate(1076 853.054)">
      <path id="Path_17805" data-name="Path 17805" d="M64.5,86.415a1.346,1.346,0,0,0-.293-.439l-16.15-16.15a1.346,1.346,0,0,0-1.9,1.9L60.006,85.583H33.646A30.99,30.99,0,0,1,2.692,54.629a1.346,1.346,0,1,0-2.692,0A33.684,33.684,0,0,0,33.646,88.275h26.36L46.154,102.126a1.346,1.346,0,1,0,1.87,1.936l.033-.033,16.15-16.15a1.346,1.346,0,0,0,.293-1.467Z" transform="translate(0 0)" fill="#aeffe9"/>
      <path id="Path_17806" data-name="Path 17806" d="M364,216.4a1.346,1.346,0,0,1-.953-2.3l15.2-15.2-15.2-15.2a1.346,1.346,0,0,1,1.9-1.9l16.15,16.15a1.346,1.346,0,0,1,0,1.9l-16.15,16.15A1.346,1.346,0,0,1,364,216.4Z" transform="translate(-316.891 -111.973)" fill="#aeffe9"/>
      <path id="Path_17807" data-name="Path 17807" d="M63.254,88.275H33.646A33.684,33.684,0,0,1,0,54.629a1.346,1.346,0,0,1,2.692,0A30.989,30.989,0,0,0,33.646,85.583H63.255a1.346,1.346,0,1,1,0,2.692Z" transform="translate(0 0)" fill="#aeffe9"/>
    </g>
    <g transform="matrix(1, 0, 0, 1, 1014, 672)" filter="url(#Rectangle_10740)">
      <rect id="Rectangle_10740-2" data-name="Rectangle 10740" width="204" height="204" rx="18" transform="translate(168 132)" fill="#fff"/>
    </g>
    <g id="Group_9302" data-name="Group 9302" transform="translate(1196.166 818.166)">
      <rect id="Rectangle_10744" data-name="Rectangle 10744" width="176" height="176" rx="10" transform="translate(-0.166 -0.166)" fill="#191919"/>
      <rect id="Rectangle_10743" data-name="Rectangle 10743" width="50.151" height="50.151" rx="10" transform="translate(64.828 61.52)" fill="#fff"/>
      <g id="Logo_Icon" data-name="Logo Icon" transform="translate(70.115 68.946)">
        <path id="Path_345" data-name="Path 345" d="M7333.25,3983.04l1.457-.6c-.69,2.35-1.363,4.642-2.055,6.994l-.838-1.458c-.217-.379-.425-.768-.656-1.131a.393.393,0,0,0-.284-.167c-2.473-.009-4.944,0-7.416-.01a.308.308,0,0,0-.308.187c-.431.767-.873,1.535-1.31,2.294-.043.074-.093.145-.167.269l-2.053-6.97,1.4.566.024-.029c-.353-.381-.706-.768-1.06-1.142l-3.7-3.954a.249.249,0,0,1-.049-.34q1.928-3.991,3.837-7.981a.422.422,0,0,1,.333-.259c2.218-.437,4.434-.889,6.656-1.3a2.616,2.616,0,0,1,.933.121c1.957.385,3.914.781,5.872,1.167a.526.526,0,0,1,.435.327q1.89,3.944,3.8,7.883a.352.352,0,0,1-.1.46l-4.582,4.889a2.125,2.125,0,0,1-.161.184Zm.067-7.61-3.583,3.614,3.161-.857c-.034-.236-.056-.448-.095-.656a1.636,1.636,0,0,1,.1-1.163,9.9,9.9,0,0,0,.417-.933Zm-8.777,3.607-3.541-3.564a5.25,5.25,0,0,1,.526,1.278,6.939,6.939,0,0,1-.09,1.455Z" transform="translate(-7307.36 -3956.287)" fill="url(#linear-gradient)"/>
        <path id="Path_346" data-name="Path 346" d="M7401.73,3939.349c-1.3-2.611-2.573-5.171-3.862-7.76.536-.259,1.05-.509,1.565-.756,1-.482,2-.958,2.987-1.444a.3.3,0,0,1,.409.067,9.086,9.086,0,0,0,.96.862l-5.3-11.109.042-.035,10.487,10.259Z" transform="translate(-7369.445 -3919.173)" fill="url(#linear-gradient-2)"/>
        <path id="Path_347" data-name="Path 347" d="M7289.962,3919.205l-5.3,11.107.039.026c.319-.307.643-.6.956-.921a.239.239,0,0,1,.32-.062q2.23,1.088,4.467,2.167c.037.019.072.042.134.076-1.283,2.577-2.561,5.145-3.858,7.747l-7.291-9.919,10.483-10.254Z" transform="translate(-7279.43 -3919.173)" fill="url(#linear-gradient-3)"/>
        <path id="Path_348" data-name="Path 348" d="M7351.244,4056.63h-9.837a1.535,1.535,0,0,1,.078-.2c.507-.889,1.02-1.773,1.52-2.667a.308.308,0,0,1,.316-.174c2,0,4,0,6,.009a.392.392,0,0,1,.295.146c.534.911,1.056,1.833,1.579,2.75A1.041,1.041,0,0,1,7351.244,4056.63Z" transform="translate(-7326.533 -4021.33)" fill="url(#linear-gradient-4)"/>
      </g>
    </g>
  </g>
</svg>
