<svg xmlns="http://www.w3.org/2000/svg" xmlns:xlink="http://www.w3.org/1999/xlink" width="156.246" height="156.246" viewBox="0 0 156.246 156.246">
  <defs>
    <linearGradient id="linear-gradient" x1="-0.358" y1="-0.227" x2="1.331" y2="1.211" gradientUnits="objectBoundingBox">
      <stop offset="0" stop-color="#e7c007"/>
      <stop offset="1" stop-color="#fd8b07"/>
    </linearGradient>
    <linearGradient id="linear-gradient-2" x1="-1.516" y1="-0.289" x2="1.809" y2="1.237" xlink:href="#linear-gradient"/>
    <linearGradient id="linear-gradient-3" x1="0.235" y1="0.242" x2="3.56" y2="1.769" xlink:href="#linear-gradient"/>
    <linearGradient id="linear-gradient-4" x1="-2.015" y1="-6.006" x2="1.754" y2="4.115" xlink:href="#linear-gradient"/>
  </defs>
  <g id="Group_9313" data-name="Group 9313" transform="translate(-262 -12307.299)">
    <g id="Group_9309" data-name="Group 9309" transform="translate(262 12307.299)">
      <rect id="Rectangle_10746" data-name="Rectangle 10746" width="156.246" height="156.246" transform="translate(0 0)" fill="#fff" opacity="0"/>
      <g id="Logo_Icon" data-name="Logo Icon" transform="translate(3.888 11.909)">
        <path id="Path_345" data-name="Path 345" d="M7082.2,2990.407l5.466-2.233c-2.592,8.816-5.112,17.412-7.711,26.238l-3.144-5.47c-.812-1.421-1.595-2.878-2.459-4.244a1.473,1.473,0,0,0-1.064-.625c-9.277-.035-18.548,0-27.822-.04a1.156,1.156,0,0,0-1.153.7c-1.617,2.877-3.276,5.757-4.915,8.606-.16.277-.347.541-.626,1.006l-7.7-26.15,5.231,2.124.093-.109c-1.323-1.427-2.649-2.879-3.979-4.285l-13.9-14.832a.938.938,0,0,1-.183-1.278q7.232-14.97,14.395-29.94a1.585,1.585,0,0,1,1.25-.974c8.321-1.641,16.635-3.334,24.972-4.882a9.747,9.747,0,0,1,3.5.454c7.342,1.444,14.683,2.929,22.031,4.376a1.981,1.981,0,0,1,1.629,1.226q7.085,14.8,14.268,29.572a1.32,1.32,0,0,1-.38,1.728l-17.188,18.338a7.708,7.708,0,0,1-.6.694Zm.256-28.551-13.445,13.558,11.855-3.213c-.126-.885-.207-1.682-.352-2.458a6.134,6.134,0,0,1,.376-4.364,37.67,37.67,0,0,0,1.565-3.5Zm-32.929,13.531-13.284-13.37a19.533,19.533,0,0,1,1.976,4.793,26.062,26.062,0,0,1-.338,5.458Z" transform="translate(-6985.078 -2890.044)" fill="url(#linear-gradient)"/>
        <path id="Path_346" data-name="Path 346" d="M7077.213,2983.066c-4.878-9.794-9.656-19.4-14.491-29.112,2.008-.974,3.938-1.911,5.872-2.839,3.737-1.809,7.485-3.593,11.2-5.419a1.107,1.107,0,0,1,1.532.254,34.558,34.558,0,0,0,3.6,3.23l-19.871-41.674.156-.134,39.343,38.487Z" transform="translate(-6956.091 -2907.373)" fill="url(#linear-gradient-2)"/>
        <path id="Path_347" data-name="Path 347" d="M7037.634,2907.5l-19.882,41.667.144.1c1.2-1.152,2.413-2.27,3.587-3.455a.9.9,0,0,1,1.2-.231q8.366,4.076,16.763,8.127c.139.069.271.156.5.287-4.814,9.667-9.607,19.3-14.473,29.061l-27.354-37.209,39.325-38.467Z" transform="translate(-6998.12 -2907.373)" fill="url(#linear-gradient-3)"/>
        <path id="Path_348" data-name="Path 348" d="M7068.828,2992.1h-36.9a5.627,5.627,0,0,1,.294-.75c1.9-3.334,3.824-6.65,5.7-10a1.154,1.154,0,0,1,1.186-.657c7.486,0,15,0,22.509.037a1.472,1.472,0,0,1,1.1.544c2,3.42,3.96,6.878,5.924,10.319A3.658,3.658,0,0,1,7068.828,2992.1Z" transform="translate(-6976.127 -2859.675)" fill="url(#linear-gradient-4)"/>
      </g>
    </g>
  </g>
</svg>
