<svg id="Group_9296" data-name="Group 9296" xmlns="http://www.w3.org/2000/svg" xmlns:xlink="http://www.w3.org/1999/xlink" width="80.536" height="81.029" viewBox="0 0 80.536 81.029">
  <defs>
    <linearGradient id="linear-gradient" x1="1.108" y1="-0.523" x2="0.138" y2="1.403" gradientUnits="objectBoundingBox">
      <stop offset="0" stop-color="#ffc649"/>
      <stop offset="0" stop-color="#ffc748"/>
      <stop offset="0" stop-color="#ffce44"/>
      <stop offset="0" stop-color="#ffd243"/>
      <stop offset="1" stop-color="#cd571b"/>
    </linearGradient>
    <linearGradient id="linear-gradient-2" x1="0.72" y1="-1.755" x2="0.322" y2="1.931" gradientUnits="objectBoundingBox">
      <stop offset="0" stop-color="#e08c3c" stop-opacity="0.502"/>
      <stop offset="1" stop-color="#ffd06f" stop-opacity="0.502"/>
    </linearGradient>
    <linearGradient id="linear-gradient-3" x1="0.225" y1="1.86" x2="0.831" y2="-1.137" gradientUnits="objectBoundingBox">
      <stop offset="0" stop-color="#f5942a"/>
      <stop offset="1" stop-color="#f5d85d"/>
    </linearGradient>
    <linearGradient id="linear-gradient-4" x1="0.345" y1="1.889" x2="0.756" y2="-1.155" gradientUnits="objectBoundingBox">
      <stop offset="0" stop-color="#e08c3c"/>
      <stop offset="1" stop-color="#ffd06f"/>
    </linearGradient>
    <linearGradient id="linear-gradient-5" x1="-0.015" y1="-0.498" x2="0.917" y2="1.265" gradientUnits="objectBoundingBox">
      <stop offset="0" stop-color="#e08c3c"/>
      <stop offset="1" stop-color="#9a6e45"/>
    </linearGradient>
    <linearGradient id="linear-gradient-6" x1="-0.362" y1="-0.274" x2="1.219" y2="1.467" xlink:href="#linear-gradient-5"/>
    <linearGradient id="linear-gradient-7" x1="0.392" y1="0.137" x2="2.106" y2="2.009" xlink:href="#linear-gradient-5"/>
    <linearGradient id="linear-gradient-8" x1="-1.21" y1="-7.284" x2="0.965" y2="2.895" xlink:href="#linear-gradient-5"/>
    <linearGradient id="linear-gradient-9" x1="0.698" y1="-0.272" x2="0.18" y2="1.746" gradientUnits="objectBoundingBox">
      <stop offset="0.199" stop-color="#ffde43"/>
      <stop offset="0.565" stop-color="#ffd13e"/>
      <stop offset="1" stop-color="#ffbd37"/>
    </linearGradient>
    <linearGradient id="linear-gradient-10" x1="0.672" y1="-0.316" x2="0.334" y2="2.042" gradientUnits="objectBoundingBox">
      <stop offset="0.018" stop-color="#ffffa0"/>
      <stop offset="0.976" stop-color="#ffeb6a"/>
    </linearGradient>
  </defs>
  <g id="Group_1299" data-name="Group 1299" transform="translate(0)">
    <g id="Group_1298" data-name="Group 1298">
      <g id="Group_1297" data-name="Group 1297">
        <path id="Path_17793" data-name="Path 17793" d="M1154.322,2900.868a36.469,36.469,0,0,0-4.207-23.12,33.119,33.119,0,0,0-4.625-6.254c-2.021-2.141-4.331-4.02-6.532-5.973a34.165,34.165,0,0,1,10.965,20.969,40.626,40.626,0,0,1-4.224,23.723,45.349,45.349,0,0,1-16.012,17.608,40.658,40.658,0,0,1-22.742,6.429,34.082,34.082,0,0,1-20.219-7.257q-.645-.516-1.263-1.064c2.9,2.573,5.7,5.3,9.026,7.336a33.366,33.366,0,0,0,9.877,4.025,38.37,38.37,0,0,0,23.165-2.1,44.569,44.569,0,0,0,18.418-14.3A43.3,43.3,0,0,0,1154.322,2900.868Z" transform="translate(-1074.16 -2857.18)" fill="url(#linear-gradient)"/>
        <path id="Path_17794" data-name="Path 17794" d="M1130.571,2968.149a43.465,43.465,0,0,0,7.269-3.86l-2.774-2.931c-.333.225-.669.448-1.009.663a41.464,41.464,0,0,1-23.2,6.558,35.41,35.41,0,0,1-16.553-4.634,32.807,32.807,0,0,0,3.223,2.281,33.368,33.368,0,0,0,9.877,4.025A38.369,38.369,0,0,0,1130.571,2968.149Z" transform="translate(-1077.202 -2890.141)" opacity="0.5" fill="url(#linear-gradient-2)" style="mix-blend-mode: screen;isolation: isolate"/>
        <g id="Group_1293" data-name="Group 1293" transform="translate(0)">
          <path id="Path_17795" data-name="Path 17795" d="M1114.247,2853.01c20.546,2.16,33.633,21.075,29.235,42.253s-24.616,36.593-45.161,34.434-33.632-21.078-29.234-42.253S1093.7,2850.851,1114.247,2853.01Z" transform="translate(-1068.237 -2852.808)" fill="url(#linear-gradient-3)"/>
        </g>
        <path id="Path_17796" data-name="Path 17796" d="M1114.739,2854.368c-19.826-2.084-39.342,12.794-43.587,33.235a39.461,39.461,0,0,0-.685,4.686,61.293,61.293,0,0,0,29.638,11.132,72.306,72.306,0,0,0,43.062-9.372C1146.742,2874.057,1134.212,2856.415,1114.739,2854.368Z" transform="translate(-1069.003 -2853.278)" opacity="0.2" fill="url(#linear-gradient-4)" style="mix-blend-mode: screen;isolation: isolate"/>
        <g id="Group_1294" data-name="Group 1294" transform="translate(19.82 17.03)">
          <path id="Path_360" data-name="Path 360" d="M1126.281,2921.059l1.731-.51c-1.285,2.642-2.517,5.178-3.762,7.741l-.586-1.76c-.151-.458-.292-.926-.461-1.371a.39.39,0,0,0-.269-.224c-2.619-.342-5.208-.659-7.763-.994a.332.332,0,0,0-.35.169c-.582.8-1.172,1.588-1.752,2.366-.056.075-.119.146-.219.272l-.848-8.034,1.328.807.031-.03c-.294-.474-.586-.954-.883-1.42l-3.1-4.93a.315.315,0,0,1,.008-.4q2.678-4.445,5.448-9.077a.518.518,0,0,1,.4-.287c2.471-.351,4.976-.721,7.516-1.052a2.5,2.5,0,0,1,1.012.228c2.105.644,4.225,1.307,6.367,1.962a.533.533,0,0,1,.419.449q1.205,5.1,2.422,10.11a.479.479,0,0,1-.228.545l-6.25,5.244c-.069.068-.142.133-.217.193Zm1.8-9.029-4.754,3.925,3.654-.655c.016-.285.04-.541.044-.793a2.225,2.225,0,0,1,.374-1.386q.364-.525.681-1.083Zm-10.324,3.328-3.049-4.55a6.29,6.29,0,0,1,.312,1.552,9.306,9.306,0,0,1-.368,1.687Z" transform="translate(-1102.183 -2886.867)" fill="#49260b"/>
          <path id="Path_361" data-name="Path 361" d="M1147.171,2906.317c-.84-3.352-1.669-6.667-2.515-10.044.687-.282,1.349-.555,2.016-.826,1.3-.531,2.6-1.058,3.918-1.607a.316.316,0,0,1,.471.122,9.431,9.431,0,0,0,.918,1.2l-3.369-15.09.06-.046,9.95,14.434Z" transform="translate(-1114.338 -2879.198)" fill="#49260b"/>
          <path id="Path_362" data-name="Path 362" d="M1111.328,2878.81l-7.683,13.575.036.034c.382-.346.77-.683,1.149-1.044a.236.236,0,0,1,.345-.051q2.141,1.484,4.307,2.969c.036.025.069.056.127.1-1.826,3-3.607,5.922-5.375,8.827l-5.79-12.281,12.836-12.178Z" transform="translate(-1098.445 -2878.766)" fill="#49260b"/>
          <path id="Path_363" data-name="Path 363" d="M1125.13,2943.072l-10.148-1.417a1.687,1.687,0,0,1,.114-.206c.671-.9,1.352-1.8,2.026-2.713a.325.325,0,0,1,.356-.151c2.057.271,4.145.545,6.246.832a.382.382,0,0,1,.281.2c.377,1.1.739,2.2,1.1,3.294A1.12,1.12,0,0,1,1125.13,2943.072Z" transform="translate(-1104.132 -2899.335)" fill="#49260b"/>
        </g>
        <path id="Path_17797" data-name="Path 17797" d="M1101.728,2928.183c-18.313-1.925-31.662-17.888-27.55-37.694s23.027-34.226,42.241-32.207c16.13,1.7,25.57,15.293,26.287,30.318.8-17.873-11.238-32.823-29.1-34.7-19.894-2.091-39.477,12.838-43.736,33.348s8.419,38.83,28.313,40.921a35.876,35.876,0,0,0,5.394.155C1102.963,2928.294,1102.345,2928.249,1101.728,2928.183Z" transform="translate(-1068.516 -2853.115)" fill="#94512a" opacity="0.5" style="mix-blend-mode: multiply;isolation: isolate"/>
        <path id="Path_17798" data-name="Path 17798" d="M1111.977,2857.664a33.554,33.554,0,0,1,3.469.182,29.274,29.274,0,0,1,20.907,11.829,30.394,30.394,0,0,1,5.21,11.855,34.7,34.7,0,0,1-.089,14.153,40.33,40.33,0,0,1-13.729,22.624,37.612,37.612,0,0,1-23.889,9,33.237,33.237,0,0,1-3.473-.182,29.272,29.272,0,0,1-20.905-11.829,30.4,30.4,0,0,1-5.211-11.856,34.687,34.687,0,0,1,.088-14.15,40.321,40.321,0,0,1,13.73-22.625,37.615,37.615,0,0,1,23.89-9h0m0-3.3c-18.949,0-36.775,14.627-40.852,34.259-4.35,20.946,8.6,37.979,28.917,40.114a36.543,36.543,0,0,0,3.819.2c18.951,0,35.243-14.042,39.32-33.672,4.35-20.948-7.064-38.565-27.386-40.7a36.526,36.526,0,0,0-3.818-.2Z" transform="translate(-1068.939 -2853.342)" fill="#e99855"/>
        <g id="Group_1295" data-name="Group 1295" transform="translate(19.486 16.362)">
          <path id="Path_360-2" data-name="Path 360" d="M1125.772,2920.042l1.731-.51c-1.285,2.642-2.517,5.177-3.762,7.741l-.586-1.76c-.151-.458-.292-.926-.461-1.37a.389.389,0,0,0-.269-.225c-2.619-.342-5.208-.659-7.764-.994a.332.332,0,0,0-.35.169c-.582.8-1.172,1.587-1.752,2.366-.056.076-.119.146-.219.272l-.848-8.033,1.328.807.031-.03c-.294-.473-.586-.954-.883-1.421l-3.1-4.93a.314.314,0,0,1,.009-.4q2.677-4.445,5.447-9.078a.521.521,0,0,1,.4-.287c2.471-.35,4.976-.72,7.516-1.052a2.508,2.508,0,0,1,1.012.228c2.105.645,4.225,1.307,6.367,1.961a.534.534,0,0,1,.419.45q1.206,5.1,2.422,10.11a.479.479,0,0,1-.228.545l-6.25,5.244a2.718,2.718,0,0,1-.217.194Zm1.8-9.029-4.754,3.924,3.654-.654c.016-.286.04-.542.044-.794a2.223,2.223,0,0,1,.374-1.386c.242-.349.469-.711.68-1.082Zm-10.324,3.328-3.049-4.55a6.3,6.3,0,0,1,.312,1.552,9.349,9.349,0,0,1-.368,1.688Z" transform="translate(-1101.674 -2885.849)" fill="#724621"/>
          <path id="Path_361-2" data-name="Path 361" d="M1146.662,2905.3c-.84-3.351-1.669-6.667-2.515-10.044.687-.282,1.35-.555,2.016-.825,1.3-.531,2.605-1.058,3.919-1.606a.315.315,0,0,1,.47.121,9.333,9.333,0,0,0,.918,1.2l-3.369-15.09.06-.046,9.95,14.434Z" transform="translate(-1113.829 -2878.18)" fill="#724621"/>
          <path id="Path_362-2" data-name="Path 362" d="M1110.819,2877.792l-7.683,13.576.035.035c.383-.347.77-.684,1.15-1.044a.236.236,0,0,1,.345-.052q2.141,1.485,4.307,2.97c.035.026.069.055.127.1-1.826,3-3.607,5.922-5.375,8.827l-5.79-12.281,12.835-12.178Z" transform="translate(-1097.936 -2877.748)" fill="#724621"/>
          <path id="Path_363-2" data-name="Path 363" d="M1124.622,2942.055l-10.147-1.417a1.9,1.9,0,0,1,.114-.206c.671-.9,1.352-1.8,2.026-2.713a.327.327,0,0,1,.357-.151c2.057.271,4.145.545,6.245.832a.388.388,0,0,1,.281.2c.377,1.1.739,2.2,1.1,3.3A1.092,1.092,0,0,1,1124.622,2942.055Z" transform="translate(-1103.624 -2898.318)" fill="#724621"/>
        </g>
        <g id="Group_1296" data-name="Group 1296" transform="translate(19.152 16.029)">
          <path id="Path_360-3" data-name="Path 360" d="M1125.263,2919.533l1.731-.511-3.762,7.742-.586-1.76c-.151-.458-.292-.927-.461-1.37a.389.389,0,0,0-.268-.225c-2.619-.342-5.209-.658-7.764-.994a.33.33,0,0,0-.35.169c-.583.8-1.172,1.588-1.752,2.366-.057.075-.12.146-.219.272l-.849-8.033,1.328.807.031-.03c-.294-.473-.587-.954-.883-1.42l-3.1-4.93a.315.315,0,0,1,.008-.4q2.678-4.445,5.447-9.078a.522.522,0,0,1,.4-.287c2.471-.351,4.976-.72,7.516-1.052a2.5,2.5,0,0,1,1.012.228c2.105.644,4.226,1.307,6.367,1.962a.531.531,0,0,1,.419.448q1.206,5.1,2.423,10.11a.481.481,0,0,1-.229.545l-6.25,5.243a2.711,2.711,0,0,1-.216.194Zm1.8-9.029-4.754,3.924,3.654-.654c.016-.286.04-.542.045-.794a2.222,2.222,0,0,1,.374-1.386q.363-.524.68-1.083Zm-10.324,3.328-3.049-4.55a6.273,6.273,0,0,1,.312,1.552,9.371,9.371,0,0,1-.368,1.688Z" transform="translate(-1101.165 -2885.34)" fill="url(#linear-gradient-5)"/>
          <path id="Path_361-3" data-name="Path 361" d="M1146.153,2904.79c-.841-3.351-1.669-6.667-2.515-10.044.687-.282,1.35-.555,2.016-.825,1.3-.531,2.605-1.059,3.919-1.606a.316.316,0,0,1,.471.121,9.433,9.433,0,0,0,.918,1.2l-3.368-15.09.06-.046,9.951,14.434Z" transform="translate(-1113.32 -2877.672)" fill="url(#linear-gradient-6)"/>
          <path id="Path_362-3" data-name="Path 362" d="M1110.31,2877.283l-7.682,13.576.035.034c.382-.347.77-.684,1.149-1.044a.236.236,0,0,1,.345-.052q2.141,1.485,4.307,2.97c.036.025.069.056.127.1-1.826,3-3.607,5.922-5.375,8.827l-5.79-12.281,12.836-12.178Z" transform="translate(-1097.427 -2877.239)" fill="url(#linear-gradient-7)"/>
          <path id="Path_363-3" data-name="Path 363" d="M1124.112,2941.546l-10.148-1.417a1.941,1.941,0,0,1,.115-.205c.671-.9,1.351-1.8,2.025-2.713a.326.326,0,0,1,.357-.152c2.057.271,4.145.545,6.245.832a.386.386,0,0,1,.281.2c.377,1.1.739,2.2,1.1,3.295A1.1,1.1,0,0,1,1124.112,2941.546Z" transform="translate(-1103.114 -2897.809)" fill="url(#linear-gradient-8)"/>
        </g>
        <path id="Path_17799" data-name="Path 17799" d="M1110.391,2856.149a33.668,33.668,0,0,1,3.507.184,29.593,29.593,0,0,1,21.136,11.958,30.728,30.728,0,0,1,5.266,11.985,35.072,35.072,0,0,1-.089,14.308,40.774,40.774,0,0,1-13.879,22.872,38.023,38.023,0,0,1-24.151,9.1,33.7,33.7,0,0,1-3.511-.184,29.589,29.589,0,0,1-21.134-11.959,30.722,30.722,0,0,1-5.268-11.986,35.055,35.055,0,0,1,.088-14.306,40.774,40.774,0,0,1,13.88-22.872,38.031,38.031,0,0,1,24.153-9.1h0m0-3.341c-19.157,0-37.179,14.787-41.3,34.635-4.4,21.175,8.693,40.094,29.234,42.253a36.926,36.926,0,0,0,3.86.2c19.159,0,37.18-14.79,41.3-34.636,4.4-21.177-8.689-40.093-29.235-42.253a36.838,36.838,0,0,0-3.86-.2Z" transform="translate(-1068.236 -2852.808)" fill="url(#linear-gradient-9)"/>
        <path id="Path_17800" data-name="Path 17800" d="M1113.587,2876.2l-3.289-.815,2.984,1.623.346.79-.809,3.345,1.6-3.037.777-.352,3.289.815-2.984-1.623-.345-.789.81-3.346-1.6,3.036Z" transform="translate(-1082.701 -2859.689)" fill="#fff"/>
        <path id="Path_17801" data-name="Path 17801" d="M1114.139,2853.01a36.774,36.774,0,0,0-3.86-.2c-19.157,0-37.179,14.787-41.3,34.635a40.67,40.67,0,0,0-.743,5.306q1.582,1.109,3.242,2.122a36.868,36.868,0,0,1,.773-6.749,40.77,40.77,0,0,1,13.879-22.872,38.03,38.03,0,0,1,24.152-9.1h0a33.676,33.676,0,0,1,3.507.184,29.592,29.592,0,0,1,21.136,11.959,30.722,30.722,0,0,1,5.266,11.984,35.053,35.053,0,0,1-.09,14.308c-.083.4-.18.8-.277,1.2q1.945-.991,3.839-2.085C1147.119,2873.163,1134.178,2855.117,1114.139,2853.01Z" transform="translate(-1068.236 -2852.808)" opacity="0.7" fill="url(#linear-gradient-10)"/>
      </g>
    </g>
  </g>
  <path id="Path_17802" data-name="Path 17802" d="M1114.739,2854.368c-19.826-2.084-39.342,12.794-43.587,33.235a39.461,39.461,0,0,0-.685,4.686,61.293,61.293,0,0,0,29.638,11.132,72.306,72.306,0,0,0,43.062-9.372C1146.742,2874.057,1134.212,2856.415,1114.739,2854.368Z" transform="translate(-1069.003 -2853.278)" opacity="0.2" fill="url(#linear-gradient-4)" style="mix-blend-mode: screen;isolation: isolate"/>
</svg>
