<svg id="Group_9316" data-name="Group 9316" xmlns="http://www.w3.org/2000/svg" width="32" height="32" viewBox="0 0 32 32">
  <path id="Path_17820" data-name="Path 17820" d="M0,0H32V32H0Z" fill="none"/>
  <path id="Path_17821" data-name="Path 17821" d="M15.333,2c3.623,0,4.075.013,5.5.08a9.823,9.823,0,0,1,3.237.62,6.5,6.5,0,0,1,2.363,1.537A6.544,6.544,0,0,1,27.967,6.6a9.85,9.85,0,0,1,.62,3.237c.063,1.421.08,1.873.08,5.5s-.013,4.075-.08,5.5a9.857,9.857,0,0,1-.62,3.237,6.807,6.807,0,0,1-3.9,3.9,9.85,9.85,0,0,1-3.237.62c-1.421.063-1.873.08-5.5.08s-4.075-.013-5.5-.08a9.857,9.857,0,0,1-3.237-.62,6.807,6.807,0,0,1-3.9-3.9,9.815,9.815,0,0,1-.62-3.237c-.063-1.421-.08-1.873-.08-5.5s.013-4.075.08-5.5A9.815,9.815,0,0,1,2.7,6.6,6.507,6.507,0,0,1,4.237,4.237,6.529,6.529,0,0,1,6.6,2.7a9.815,9.815,0,0,1,3.237-.62C11.259,2.017,11.711,2,15.333,2Zm0,6.667A6.667,6.667,0,1,0,22,15.333,6.667,6.667,0,0,0,15.333,8.667ZM24,8.333A1.667,1.667,0,1,0,22.333,10,1.667,1.667,0,0,0,24,8.333Zm-8.667,3a4,4,0,1,1-4,4A4,4,0,0,1,15.333,11.333Z" transform="translate(0.667 0.667)" fill="#12d8a0"/>
</svg>
