<svg id="Group_9326" data-name="Group 9326" xmlns="http://www.w3.org/2000/svg" xmlns:xlink="http://www.w3.org/1999/xlink" width="126.284" height="96.949" viewBox="0 0 126.284 96.949">
  <defs>
    <radialGradient id="radial-gradient" cx="-0.498" cy="0.969" r="0.83" gradientUnits="objectBoundingBox">
      <stop offset="0" stop-color="#01c8ef"/>
      <stop offset="0.283" stop-color="#0799ca"/>
      <stop offset="0.773" stop-color="#124d8f"/>
      <stop offset="1" stop-color="#172f78"/>
    </radialGradient>
    <radialGradient id="radial-gradient-2" cx="-1.569" cy="0.272" r="0.92" xlink:href="#radial-gradient"/>
    <linearGradient id="linear-gradient" x1="-0.206" y1="4.867" x2="0.859" y2="4.867" gradientUnits="objectBoundingBox">
      <stop offset="0" stop-color="#e7c007"/>
      <stop offset="1" stop-color="#fd8b07"/>
    </linearGradient>
    <linearGradient id="linear-gradient-2" x1="0.178" y1="1.602" x2="0.66" y2="-0.587" gradientUnits="objectBoundingBox">
      <stop offset="0" stop-color="#2ac29c"/>
      <stop offset="1" stop-color="#18727f"/>
    </linearGradient>
    <linearGradient id="linear-gradient-3" x1="-0.099" y1="2.748" x2="0.963" y2="2.748" gradientUnits="objectBoundingBox">
      <stop offset="0" stop-color="#2ad999"/>
      <stop offset="1" stop-color="#189c7f"/>
    </linearGradient>
    <linearGradient id="linear-gradient-4" x1="-0.052" y1="2.719" x2="1.069" y2="2.719" xlink:href="#linear-gradient-2"/>
    <linearGradient id="linear-gradient-5" x1="0" y1="0.5" x2="1" y2="0.5" xlink:href="#linear-gradient-3"/>
    <linearGradient id="linear-gradient-6" x1="-0.046" y1="0.5" x2="1.046" y2="0.5" xlink:href="#linear-gradient-2"/>
    <linearGradient id="linear-gradient-7" x1="-0.092" y1="2.99" x2="1.133" y2="2.99" xlink:href="#linear-gradient-3"/>
    <clipPath id="clip-path">
      <ellipse id="Ellipse_1583" data-name="Ellipse 1583" cx="21.733" cy="37.642" rx="21.733" ry="37.642" transform="translate(0 13.496) rotate(-18.089)" fill="none"/>
    </clipPath>
    <linearGradient id="linear-gradient-9" x1="-0.009" y1="12.97" x2="1.216" y2="12.97" xlink:href="#linear-gradient"/>
    <radialGradient id="radial-gradient-3" cx="-1.348" cy="0.66" r="0.701" gradientUnits="objectBoundingBox">
      <stop offset="0" stop-color="#f9636b"/>
      <stop offset="1" stop-color="#b6246e"/>
    </radialGradient>
    <linearGradient id="linear-gradient-10" y1="0.5" x2="1" y2="0.5" gradientUnits="objectBoundingBox">
      <stop offset="0" stop-color="#e79807"/>
      <stop offset="1" stop-color="#fd6807"/>
    </linearGradient>
    <linearGradient id="linear-gradient-11" x1="-11.371" y1="11.552" x2="-10.628" y2="11.552" xlink:href="#linear-gradient"/>
  </defs>
  <g id="Group_2644" data-name="Group 2644" transform="translate(0 0)">
    <g id="Group_2638" data-name="Group 2638" transform="translate(81.869 41.901)">
      <path id="Path_19775" data-name="Path 19775" d="M319.637,3525.842l.907-4.946,11.2-28.434-5.134-4.619-12.743,4.294-6.97,38c-.469,2.557.177,4.46,1.546,5.291v0L313,3539.6l1.091-2.331,1.693-4.3A14.375,14.375,0,0,0,319.637,3525.842Z" transform="translate(-306.742 -3487.842)" fill="url(#radial-gradient)"/>
      <path id="Path_19776" data-name="Path 19776" d="M316.932,3540.143h0c-3.519,1.186-5.747-1.255-4.977-5.453l6.97-38,12.742-4.295-6.971,38C323.927,3534.592,320.451,3538.957,316.932,3540.143Z" transform="translate(-306.668 -3487.775)" fill="url(#radial-gradient-2)"/>
    </g>
    <path id="Path_19777" data-name="Path 19777" d="M350.821,3474.359a17.626,17.626,0,0,0-4.951-15.158,6.471,6.471,0,0,0-4.158-1.9h0l-29.762-.6,13.07,39.69,23.571-18.046h0A6.478,6.478,0,0,0,350.821,3474.359Z" transform="translate(-224.797 -3446.396)" fill="url(#linear-gradient)" style="mix-blend-mode: normal;isolation: isolate"/>
    <path id="Path_19778" data-name="Path 19778" d="M333.511,3459.97a10.973,10.973,0,0,0-5.753-2.954l-1.519-.031c-3.131.3-5.66,2.912-6.634,7.527-1.667,7.905,1.855,18.688,7.866,24.085a12.362,12.362,0,0,0,4.226,2.593l9.74-7.458C342.946,3475.859,339.443,3465.295,333.511,3459.97Z" transform="translate(-224.691 -3446.392)" fill="#380031" opacity="0.5"/>
    <path id="Path_19779" data-name="Path 19779" d="M316.942,3540.114h0c3.519-1.186,6.995-5.551,7.765-9.748l5.829-31.774.363-3.514-5.317-.658-5.909,1.992-.885-1.613-5.289.944-2.28,9.97-.041.236a6.4,6.4,0,0,0,4.147,7.091l.568.2-3.929,21.417C311.2,3538.858,313.424,3541.3,316.942,3540.114Z" transform="translate(-224.81 -3445.844)" fill="url(#linear-gradient-2)" style="mix-blend-mode: normal;isolation: isolate"/>
    <path id="Path_19780" data-name="Path 19780" d="M338.4,3486.616c2.082-9.868-2.314-23.329-9.819-30.066-3.411-3.062-6.875-4.2-9.837-3.615l0-.008-.062.016-.076.019c-.131.028-.261.062-.39.1a110.8,110.8,0,0,1-54.366.059l-5.057-1.274,26.5,79.887,3.165-3.871a110.8,110.8,0,0,1,43.212-32.159C334.846,3494.7,337.345,3491.594,338.4,3486.616Z" transform="translate(-225.575 -3446.467)" fill="url(#linear-gradient-3)" style="mix-blend-mode: normal;isolation: isolate"/>
    <path id="Path_19781" data-name="Path 19781" d="M293.785,3516.679c3.994-18.93-4.44-44.753-18.837-57.677-7.181-6.445-14.487-8.464-20.5-6.522h0l-.032.01-.046.015-5.472,1.826,1.777,0c-4.224,2.877-7.461,8.132-9.024,15.543-3.994,18.931,4.441,44.754,18.839,57.677,5.65,5.072,11.379,7.4,16.5,7.22l-1.011.972,5.037-1.675.079-.026.181-.06h-.005C287.18,3531.942,291.813,3526.026,293.785,3516.679Z" transform="translate(-225.84 -3446.468)" fill="url(#linear-gradient-4)" style="mix-blend-mode: normal;isolation: isolate"/>
    <path id="Path_19782" data-name="Path 19782" d="M289.884,3517.954c3.994-18.93-4.44-44.753-18.839-57.677-7.083-6.359-14.289-8.407-20.26-6.6l-.837.28c-.288.107-.573.226-.855.352l1.578,0c-4.224,2.877-7.461,8.132-9.024,15.543-3.994,18.931,4.441,44.754,18.839,57.677,5.65,5.072,11.379,7.4,16.5,7.22l-.921.886C282.6,3534.055,287.769,3527.976,289.884,3517.954Z" transform="translate(-225.84 -3446.449)" fill="url(#linear-gradient-5)" style="mix-blend-mode: normal;isolation: isolate"/>
    <ellipse id="Ellipse_1580" data-name="Ellipse 1580" cx="24.771" cy="42.904" rx="24.771" ry="42.904" transform="translate(0 15.382) rotate(-18.089)" fill="url(#linear-gradient-6)" style="mix-blend-mode: normal;isolation: isolate"/>
    <ellipse id="Ellipse_1581" data-name="Ellipse 1581" cx="21.733" cy="37.642" rx="21.733" ry="37.642" transform="translate(4.522 19.441) rotate(-18.089)" fill="url(#linear-gradient-7)" style="mix-blend-mode: normal;isolation: isolate"/>
    <path id="Path_19783" data-name="Path 19783" d="M261.326,3523.584a41.892,41.892,0,0,1-5.319-5.821,10.284,10.284,0,0,1,1.93-14.375,112.964,112.964,0,0,1,25.741-14.367c-2.951-9.506-8.074-18.388-14.6-24.248-5.566-5-11.219-6.96-16.1-6.174l-.037.006c-.185.031-.367.064-.549.1l-.092.02q-.251.053-.5.118l-.092.024q-.268.071-.533.156l-.035.01q-.584.185-1.15.428l-.034.015c-.169.073-.337.15-.5.23l-.1.049q-.221.109-.438.229l-.107.057c-.15.083-.3.17-.446.26l-.073.044q-.527.324-1.03.7l-.04.03q-.222.168-.439.346l-.11.092c-.123.1-.245.208-.364.315l-.122.11c-.12.111-.239.223-.357.338l-.1.1c-.144.143-.286.288-.425.438l-.018.019c-.151.163-.3.33-.447.5l-.049.058q-.186.219-.366.447l-.113.146c-.1.128-.2.257-.293.389l-.123.17c-.094.131-.187.265-.278.4l-.115.169q-.154.233-.3.475l-.07.111q-.186.3-.365.619l-.046.084q-.151.269-.3.546l-.1.2q-.116.225-.226.455c-.039.078-.075.157-.113.237q-.107.225-.208.456l-.107.239c-.073.169-.144.341-.214.513-.027.066-.055.13-.081.2q-.143.361-.28.733l-.03.088c-.079.219-.156.44-.231.666-.027.083-.054.168-.081.252q-.085.261-.165.528c-.03.1-.059.2-.088.3-.05.17-.1.342-.146.515-.027.1-.055.2-.081.3-.05.187-.1.375-.143.565-.022.089-.045.177-.066.267q-.1.42-.191.85c-.1.469-.187.944-.268,1.422-.029.17-.055.343-.083.516-.052.318-.1.637-.138.958-.022.166-.045.332-.064.5-.046.376-.084.754-.12,1.134-.011.119-.024.238-.034.358-.041.474-.071.951-.1,1.431-.01.2-.016.394-.024.59-.011.3-.021.6-.027.9,0,.231-.008.463-.009.7,0,.274,0,.548,0,.823,0,.241,0,.482.01.726.009.387.025.776.044,1.166.016.359.04.718.064,1.078.013.2.025.4.042.6.024.317.053.636.083.955.016.168.033.338.052.506q.186,1.784.485,3.579c.01.06.019.119.029.179.065.386.136.774.21,1.162.018.1.038.2.057.3,2.324,11.945,8.25,23.795,16.313,31.033,7.037,6.317,14.213,7.787,19.8,4.979C271.6,3530.193,266.425,3528.161,261.326,3523.584Z" transform="translate(-225.864 -3446.371)" fill="#fff" opacity="0.1"/>
    <path id="Path_19784" data-name="Path 19784" d="M257.714,3524.651c-12.632-11.338-20.032-33.995-16.528-50.6,1.841-8.722,6.322-14.038,11.992-15.482-6.293.91-11.336,6.356-13.317,15.747-3.5,16.609,3.9,39.265,16.527,50.6,6,5.385,12.1,7.247,17.225,5.941C268.776,3531.557,263.2,3529.579,257.714,3524.651Z" transform="translate(-225.864 -3446.369)" fill="url(#linear-gradient-5)" style="mix-blend-mode: normal;isolation: isolate"/>
    <g id="Group_2642" data-name="Group 2642" transform="translate(4.522 5.945)">
      <g id="Group_2641" data-name="Group 2641" transform="translate(0 0)" clip-path="url(#clip-path)">
        <g id="Group_2640" data-name="Group 2640" transform="translate(25.887 14.235)">
          <path id="Path_19785" data-name="Path 19785" d="M259.842,3487.681l43.953-21.247,8.7,26.7-48.194,8.843Z" transform="translate(-255.968 -3466.434)" fill="#fff"/>
          <ellipse id="Ellipse_1582" data-name="Ellipse 1582" cx="4.34" cy="7.517" rx="4.34" ry="7.517" transform="translate(0 22.497) rotate(-18.089)" fill="url(#linear-gradient-9)" style="mix-blend-mode: normal;isolation: isolate"/>
          <g id="Group_2639" data-name="Group 2639" transform="translate(15.285)">
            <path id="Path_19786" data-name="Path 19786" d="M273.865,3483.685a14.822,14.822,0,0,1,4.165,12.75,5.465,5.465,0,0,1-1.854,3.334l36.155-6.634-8.7-26.7-32.543,15.731A6.041,6.041,0,0,1,273.865,3483.685Z" transform="translate(-271.088 -3466.434)" fill="#d8d8d8"/>
          </g>
        </g>
      </g>
    </g>
    <g id="Group_2643" data-name="Group 2643" transform="translate(83.989 66.48)">
      <path id="Path_19787" data-name="Path 19787" d="M313.441,3512.494l-.184-.155a.877.877,0,0,0-.927-.214v0l-1.461.525.86.333c-.012.05-.024.1-.033.153l-1.307,7.336a3.349,3.349,0,0,0,.895,2.859l-.449.951,1.465-.531,0,0c.353-.087.636-.452.742-1.045l1.307-7.334A3.346,3.346,0,0,0,313.441,3512.494Z" transform="translate(-308.81 -3512.067)" fill="url(#radial-gradient-3)"/>
      <path id="Path_19788" data-name="Path 19788" d="M313.441,3512.494l-.184-.155a.877.877,0,0,0-.927-.214v0l-1.461.525.86.333c-.012.05-.024.1-.033.153l-1.307,7.336a3.349,3.349,0,0,0,.895,2.859l-.449.951,1.465-.531,0,0c.353-.087.636-.452.742-1.045l1.307-7.334A3.346,3.346,0,0,0,313.441,3512.494Z" transform="translate(-308.81 -3512.067)" fill="url(#linear-gradient-10)" style="mix-blend-mode: normal;isolation: isolate"/>
      <path id="Path_19789" data-name="Path 19789" d="M309.965,3524.041l-.184-.155a3.341,3.341,0,0,1-.907-2.871l1.308-7.336c.18-1.012.879-1.368,1.56-.793l.184.154a3.344,3.344,0,0,1,.907,2.872l-1.307,7.335C311.345,3524.259,310.647,3524.614,309.965,3524.041Z" transform="translate(-308.832 -3512.059)" fill="url(#linear-gradient-11)" style="mix-blend-mode: normal;isolation: isolate"/>
    </g>
  </g>
</svg>
