<svg id="Group_9320" data-name="Group 9320" xmlns="http://www.w3.org/2000/svg" xmlns:xlink="http://www.w3.org/1999/xlink" width="157.947" height="158.914" viewBox="0 0 157.947 158.914">
  <defs>
    <linearGradient id="linear-gradient" x1="1.108" y1="-0.523" x2="0.138" y2="1.403" gradientUnits="objectBoundingBox">
      <stop offset="0" stop-color="#ffc649"/>
      <stop offset="0" stop-color="#ffc748"/>
      <stop offset="0" stop-color="#ffce44"/>
      <stop offset="0" stop-color="#ffd243"/>
      <stop offset="1" stop-color="#cd571b"/>
    </linearGradient>
    <linearGradient id="linear-gradient-2" x1="0.72" y1="-1.755" x2="0.322" y2="1.932" gradientUnits="objectBoundingBox">
      <stop offset="0" stop-color="#e08c3c" stop-opacity="0.502"/>
      <stop offset="1" stop-color="#ffd06f" stop-opacity="0.502"/>
    </linearGradient>
    <linearGradient id="linear-gradient-3" x1="0.225" y1="1.86" x2="0.831" y2="-1.137" gradientUnits="objectBoundingBox">
      <stop offset="0" stop-color="#f5942a"/>
      <stop offset="1" stop-color="#f5d85d"/>
    </linearGradient>
    <linearGradient id="linear-gradient-4" x1="0.345" y1="1.889" x2="0.756" y2="-1.155" gradientUnits="objectBoundingBox">
      <stop offset="0" stop-color="#e08c3c"/>
      <stop offset="1" stop-color="#ffd06f"/>
    </linearGradient>
    <linearGradient id="linear-gradient-5" x1="-0.015" y1="-0.498" x2="0.917" y2="1.265" gradientUnits="objectBoundingBox">
      <stop offset="0" stop-color="#e08c3c"/>
      <stop offset="1" stop-color="#9a6e45"/>
    </linearGradient>
    <linearGradient id="linear-gradient-6" x1="-0.362" y1="-0.274" x2="1.219" y2="1.467" xlink:href="#linear-gradient-5"/>
    <linearGradient id="linear-gradient-7" x1="0.392" y1="0.137" x2="2.106" y2="2.009" xlink:href="#linear-gradient-5"/>
    <linearGradient id="linear-gradient-8" x1="-1.21" y1="-7.284" x2="0.965" y2="2.895" xlink:href="#linear-gradient-5"/>
    <linearGradient id="linear-gradient-9" x1="0.698" y1="-0.272" x2="0.18" y2="1.746" gradientUnits="objectBoundingBox">
      <stop offset="0.199" stop-color="#ffde43"/>
      <stop offset="0.565" stop-color="#ffd13e"/>
      <stop offset="1" stop-color="#ffbd37"/>
    </linearGradient>
    <linearGradient id="linear-gradient-10" x1="0.672" y1="-0.316" x2="0.334" y2="2.042" gradientUnits="objectBoundingBox">
      <stop offset="0.018" stop-color="#ffffa0"/>
      <stop offset="0.976" stop-color="#ffeb6a"/>
    </linearGradient>
  </defs>
  <g id="Group_3598" data-name="Group 3598">
    <g id="Group_3597" data-name="Group 3597">
      <g id="Group_3596" data-name="Group 3596">
        <path id="Path_21418" data-name="Path 21418" d="M2301.3,4069.461c2.165-15.5-.418-31.7-8.25-45.343a65.041,65.041,0,0,0-9.07-12.267c-3.967-4.2-8.495-7.885-12.812-11.714a66.988,66.988,0,0,1,21.5,41.126,79.634,79.634,0,0,1-8.284,46.524,88.926,88.926,0,0,1-31.4,34.533,79.751,79.751,0,0,1-44.6,12.608,66.844,66.844,0,0,1-39.656-14.23q-1.265-1.012-2.477-2.088c5.688,5.046,11.186,10.4,17.7,14.386a65.424,65.424,0,0,0,19.372,7.894,75.233,75.233,0,0,0,45.429-4.122,87.388,87.388,0,0,0,36.122-28.035A84.947,84.947,0,0,0,2301.3,4069.461Z" transform="translate(-2144.092 -3983.781)" fill="url(#linear-gradient)"/>
        <path id="Path_21419" data-name="Path 21419" d="M2241.466,4057.758a85.2,85.2,0,0,0,14.256-7.567l-5.439-5.747c-.657.439-1.314.876-1.981,1.3a81.324,81.324,0,0,1-45.5,12.859,69.459,69.459,0,0,1-32.462-9.087,64.7,64.7,0,0,0,6.321,4.472,65.453,65.453,0,0,0,19.371,7.894A75.235,75.235,0,0,0,2241.466,4057.758Z" transform="translate(-2136.8 -3904.77)" opacity="0.5" fill="url(#linear-gradient-2)" style="mix-blend-mode: screen;isolation: isolate"/>
        <g id="Group_3592" data-name="Group 3592">
          <path id="Path_21420" data-name="Path 21420" d="M2248.531,3994.657c40.293,4.236,65.961,41.331,57.335,82.866s-48.276,71.768-88.569,67.531-65.961-41.338-57.336-82.866S2208.242,3990.423,2248.531,3994.657Z" transform="translate(-2158.292 -3994.261)" fill="url(#linear-gradient-3)"/>
        </g>
        <path id="Path_21421" data-name="Path 21421" d="M2246.15,3995.274c-38.885-4.086-77.158,25.091-85.483,65.179a77.091,77.091,0,0,0-1.341,9.19,120.2,120.2,0,0,0,58.124,21.829c29.539,3.106,58.88-3.938,84.453-18.378C2308.913,4033.889,2284.339,3999.287,2246.15,3995.274Z" transform="translate(-2156.452 -3993.136)" opacity="0.2" fill="url(#linear-gradient-4)" style="mix-blend-mode: screen;isolation: isolate"/>
        <g id="Group_3593" data-name="Group 3593" transform="translate(38.87 33.399)">
          <path id="Path_360" data-name="Path 360" d="M2210.558,4053.9l3.4-1c-2.519,5.179-4.935,10.153-7.379,15.183l-1.149-3.452c-.295-.9-.573-1.817-.9-2.688a.762.762,0,0,0-.526-.439c-5.138-.671-10.215-1.291-15.228-1.951a.648.648,0,0,0-.685.331c-1.144,1.564-2.3,3.115-3.437,4.644-.111.147-.233.286-.429.53l-1.664-15.753,2.605,1.581.061-.059c-.576-.93-1.152-1.87-1.734-2.785l-6.069-9.67a.614.614,0,0,1,.016-.779q5.253-8.717,10.683-17.8a1.022,1.022,0,0,1,.791-.565c4.846-.685,9.762-1.411,14.74-2.062a4.926,4.926,0,0,1,1.985.448c4.13,1.264,8.288,2.563,12.489,3.847a1.048,1.048,0,0,1,.82.882q2.364,10,4.751,19.828a.942.942,0,0,1-.448,1.069q-6.228,5.222-12.257,10.284a5.544,5.544,0,0,1-.426.379Zm3.523-17.708-9.324,7.7,7.167-1.283c.031-.56.079-1.061.087-1.556a4.363,4.363,0,0,1,.734-2.72c.473-.685.919-1.395,1.333-2.123Zm-20.248,6.527-5.978-8.923a12.355,12.355,0,0,1,.612,3.045,18.343,18.343,0,0,1-.721,3.31Z" transform="translate(-2163.298 -3986.843)" fill="#49260b"/>
          <path id="Path_361" data-name="Path 361" d="M2198.553,4058.408c-1.648-6.571-3.273-13.072-4.932-19.7,1.347-.555,2.647-1.089,3.955-1.62,2.541-1.041,5.11-2.073,7.685-3.147a.62.62,0,0,1,.924.236,18.49,18.49,0,0,0,1.8,2.349l-6.6-29.595.117-.091,19.517,28.309Z" transform="translate(-2134.162 -4005.225)" fill="#49260b"/>
          <path id="Path_362" data-name="Path 362" d="M2197.524,4006.347l-15.068,26.625.069.066c.751-.68,1.509-1.342,2.254-2.048a.461.461,0,0,1,.676-.1q4.2,2.909,8.447,5.822c.07.05.137.111.251.206-3.582,5.875-7.075,11.612-10.541,17.31l-11.355-24.084,25.172-23.883Z" transform="translate(-2172.258 -4006.261)" fill="#49260b"/>
          <path id="Path_363" data-name="Path 363" d="M2199.8,4042.729l-19.9-2.778a3.456,3.456,0,0,1,.222-.4c1.317-1.763,2.65-3.524,3.976-5.319a.64.64,0,0,1,.7-.3c4.033.532,8.129,1.069,12.249,1.631a.764.764,0,0,1,.551.4c.741,2.148,1.448,4.309,2.16,6.46A2.178,2.178,0,0,1,2199.8,4042.729Z" transform="translate(-2158.623 -3956.953)" fill="#49260b"/>
        </g>
        <path id="Path_21422" data-name="Path 21422" d="M2222.758,4140.744c-35.916-3.773-62.1-35.08-54.029-73.924s45.159-67.128,82.842-63.164c31.634,3.323,50.146,29.993,51.555,59.457,1.567-35.054-22.042-64.372-57.066-68.055-39.016-4.1-77.423,25.178-85.776,65.4s16.51,76.153,55.527,80.253a69.99,69.99,0,0,0,10.577.306C2225.178,4140.961,2223.968,4140.872,2222.758,4140.744Z" transform="translate(-2157.621 -3993.522)" fill="#94512a" opacity="0.5" style="mix-blend-mode: multiply;isolation: isolate"/>
        <path id="Path_21423" data-name="Path 21423" d="M2241.014,4001.457a66.078,66.078,0,0,1,6.8.357c16.811,1.767,31.373,10.006,41,23.2a59.543,59.543,0,0,1,10.218,23.249,68.059,68.059,0,0,1-.173,27.758,79.1,79.1,0,0,1-26.925,44.368c-13.666,11.386-30.3,17.657-46.851,17.657a65.441,65.441,0,0,1-6.811-.356c-16.805-1.768-31.365-10.006-41-23.2a59.613,59.613,0,0,1-10.22-23.252,68.045,68.045,0,0,1,.173-27.755,79.079,79.079,0,0,1,26.927-44.369c13.664-11.383,30.3-17.654,46.854-17.657h0m-.005-6.479c-37.162,0-72.125,28.685-80.122,67.188-8.531,41.078,16.864,74.483,56.715,78.673a72.143,72.143,0,0,0,7.487.389c37.167,0,69.12-27.537,77.117-66.036,8.531-41.083-13.853-75.636-53.709-79.824a71.927,71.927,0,0,0-7.487-.39Z" transform="translate(-2156.608 -3992.982)" fill="#e99855"/>
        <g id="Group_3594" data-name="Group 3594" transform="translate(38.215 32.089)">
          <path id="Path_360-2" data-name="Path 360" d="M2210.323,4053.432l3.4-1c-2.522,5.183-4.937,10.157-7.378,15.184l-1.15-3.451c-.294-.9-.573-1.818-.9-2.687a.764.764,0,0,0-.526-.442c-5.138-.671-10.215-1.292-15.227-1.948a.654.654,0,0,0-.688.331c-1.141,1.564-2.3,3.115-3.434,4.64-.111.147-.234.287-.429.534l-1.665-15.756,2.605,1.584.059-.061c-.577-.928-1.149-1.871-1.732-2.786l-6.069-9.667a.619.619,0,0,1,.014-.78q5.251-8.72,10.685-17.8a1.019,1.019,0,0,1,.79-.562c4.847-.687,9.762-1.414,14.741-2.062a4.876,4.876,0,0,1,1.984.445c4.131,1.264,8.286,2.563,12.486,3.85a1.04,1.04,0,0,1,.821.88q2.367,10,4.753,19.827a.943.943,0,0,1-.448,1.069l-12.258,10.284c-.136.133-.278.262-.426.382Zm3.523-17.708-9.324,7.7,7.167-1.283c.031-.562.078-1.063.086-1.559a4.365,4.365,0,0,1,.732-2.717q.713-1.031,1.336-2.123Zm-20.249,6.526-5.978-8.923a12.35,12.35,0,0,1,.612,3.042,18.2,18.2,0,0,1-.724,3.313Z" transform="translate(-2163.063 -3986.37)" fill="#724621"/>
          <path id="Path_361-2" data-name="Path 361" d="M2198.318,4057.938c-1.648-6.574-3.273-13.076-4.932-19.7,1.348-.552,2.647-1.088,3.955-1.617,2.541-1.041,5.108-2.076,7.685-3.151a.621.621,0,0,1,.923.24,18.621,18.621,0,0,0,1.8,2.346l-6.6-29.595.117-.089,19.514,28.307Z" transform="translate(-2133.927 -4004.752)" fill="#724621"/>
          <path id="Path_362-2" data-name="Path 362" d="M2197.29,4005.876l-15.069,26.625.069.066c.749-.679,1.509-1.339,2.255-2.045a.461.461,0,0,1,.676-.1q4.2,2.911,8.448,5.823c.069.05.134.108.25.2-3.582,5.878-7.075,11.614-10.543,17.312l-11.353-24.085,25.172-23.884Z" transform="translate(-2172.023 -4005.79)" fill="#724621"/>
          <path id="Path_363-2" data-name="Path 363" d="M2199.571,4042.259l-19.9-2.777a3.458,3.458,0,0,1,.225-.4c1.316-1.763,2.649-3.527,3.972-5.322a.64.64,0,0,1,.7-.295c4.033.529,8.127,1.069,12.25,1.631a.761.761,0,0,1,.551.4c.74,2.148,1.448,4.312,2.16,6.463A2.173,2.173,0,0,1,2199.571,4042.259Z" transform="translate(-2158.39 -3956.482)" fill="#724621"/>
        </g>
        <g id="Group_3595" data-name="Group 3595" transform="translate(37.559 31.434)">
          <path id="Path_360-3" data-name="Path 360" d="M2210.089,4053.194l3.393-1c-2.52,5.182-4.935,10.156-7.379,15.183l-1.146-3.451c-.3-.9-.573-1.817-.9-2.688a.764.764,0,0,0-.529-.44c-5.135-.671-10.215-1.291-15.225-1.948a.645.645,0,0,0-.688.332c-1.141,1.562-2.3,3.114-3.434,4.64-.111.147-.233.287-.429.533l-1.664-15.755,2.6,1.58.059-.058c-.577-.928-1.15-1.87-1.732-2.786l-6.073-9.666a.623.623,0,0,1,.016-.783q5.253-8.717,10.682-17.8a1.024,1.024,0,0,1,.794-.562c4.846-.687,9.758-1.413,14.74-2.065a4.934,4.934,0,0,1,1.985.449c4.128,1.264,8.286,2.563,12.486,3.846a1.05,1.05,0,0,1,.822.883q2.366,10,4.75,19.828a.938.938,0,0,1-.449,1.068q-6.228,5.228-12.257,10.284a5,5,0,0,1-.422.379Zm3.52-17.708-9.321,7.7,7.164-1.285c.033-.561.081-1.062.089-1.557a4.355,4.355,0,0,1,.731-2.719q.714-1.027,1.333-2.121Zm-20.245,6.527-5.978-8.923a12.528,12.528,0,0,1,.612,3.045,18.093,18.093,0,0,1-.724,3.31Z" transform="translate(-2162.827 -3986.136)" fill="url(#linear-gradient-5)"/>
          <path id="Path_361-3" data-name="Path 361" d="M2198.084,4057.706c-1.648-6.574-3.273-13.076-4.933-19.7,1.348-.551,2.648-1.088,3.953-1.617,2.544-1.04,5.11-2.075,7.688-3.15a.619.619,0,0,1,.921.237,18.56,18.56,0,0,0,1.8,2.349l-6.607-29.6.12-.091,19.514,28.309Z" transform="translate(-2133.689 -4004.519)" fill="url(#linear-gradient-6)"/>
          <path id="Path_362-3" data-name="Path 362" d="M2197.053,4005.641l-15.066,26.626.07.066c.749-.68,1.509-1.339,2.254-2.046a.462.462,0,0,1,.676-.1q4.2,2.915,8.447,5.826c.07.047.134.107.249.2-3.58,5.875-7.073,11.614-10.541,17.312l-11.355-24.086,25.175-23.884Z" transform="translate(-2171.787 -4005.555)" fill="url(#linear-gradient-7)"/>
          <path id="Path_363-3" data-name="Path 363" d="M2199.333,4042.025l-19.9-2.778a3.439,3.439,0,0,1,.225-.4c1.314-1.765,2.65-3.526,3.972-5.321a.637.637,0,0,1,.7-.3c4.036.53,8.13,1.069,12.25,1.632a.753.753,0,0,1,.553.4c.738,2.148,1.448,4.311,2.157,6.459A1.851,1.851,0,0,1,2199.333,4042.025Z" transform="translate(-2158.152 -3956.247)" fill="url(#linear-gradient-8)"/>
        </g>
        <path id="Path_21424" data-name="Path 21424" d="M2240.966,4000.813a66.807,66.807,0,0,1,6.88.358c16.992,1.787,31.713,10.115,41.451,23.452a60.244,60.244,0,0,1,10.329,23.509,68.738,68.738,0,0,1-.176,28.058,79.978,79.978,0,0,1-27.22,44.858c-13.813,11.509-30.636,17.849-47.364,17.849a65.987,65.987,0,0,1-6.885-.358c-16.99-1.786-31.711-10.114-41.45-23.455a60.282,60.282,0,0,1-10.331-23.507,68.677,68.677,0,0,1,.175-28.056,79.95,79.95,0,0,1,27.221-44.858c13.813-11.509,30.635-17.85,47.369-17.85h0m-.006-6.552c-37.571,0-72.917,29-81,67.927-8.625,41.528,17.048,78.633,57.336,82.866a72.14,72.14,0,0,0,7.57.4c37.575,0,72.917-29.008,81-67.927,8.626-41.535-17.042-78.63-57.335-82.866a71.69,71.69,0,0,0-7.571-.4Z" transform="translate(-2158.292 -3994.261)" fill="url(#linear-gradient-9)"/>
        <path id="Path_21425" data-name="Path 21425" d="M2184.188,4010.157l-6.45-1.6,5.853,3.181.678,1.549-1.587,6.562,3.143-5.957,1.524-.69,6.45,1.6-5.853-3.185-.677-1.546,1.59-6.562-3.145,5.954Z" transform="translate(-2123.617 -3977.768)" fill="#fff"/>
        <path id="Path_21426" data-name="Path 21426" d="M2248.318,3994.657a72.682,72.682,0,0,0-7.57-.4c-37.572,0-72.914,29-81,67.927a79.932,79.932,0,0,0-1.456,10.406q3.1,2.175,6.357,4.161a72.2,72.2,0,0,1,1.514-13.234,79.97,79.97,0,0,1,27.22-44.858c13.813-11.509,30.636-17.85,47.369-17.85h0a66.816,66.816,0,0,1,6.881.358c16.992,1.787,31.712,10.115,41.451,23.455a60.2,60.2,0,0,1,10.329,23.506,68.747,68.747,0,0,1-.175,28.058c-.165.79-.356,1.575-.542,2.357q3.811-1.941,7.529-4.089C2313,4034.179,2287.619,3998.787,2248.318,3994.657Z" transform="translate(-2158.292 -3994.261)" opacity="0.7" fill="url(#linear-gradient-10)"/>
      </g>
    </g>
  </g>
  <path id="Path_21427" data-name="Path 21427" d="M2246.15,3995.274c-38.885-4.086-77.158,25.091-85.483,65.179a77.091,77.091,0,0,0-1.341,9.19,120.2,120.2,0,0,0,58.124,21.829c29.539,3.106,58.88-3.938,84.453-18.378C2308.913,4033.889,2284.339,3999.287,2246.15,3995.274Z" transform="translate(-2156.452 -3993.136)" opacity="0.2" fill="url(#linear-gradient-4)" style="mix-blend-mode: screen;isolation: isolate"/>
</svg>
