<svg xmlns="http://www.w3.org/2000/svg" width="210" height="84" viewBox="0 0 210 84">
  <g id="Group_9290" data-name="Group 9290" transform="translate(-0.313 0.359)">
    <rect id="Rectangle_10696" data-name="Rectangle 10696" width="210" height="84" rx="23" transform="translate(0.313 -0.359)" fill="#00002d"/>
    <g id="Group_9279" data-name="Group 9279">
      <g id="Rectangle_10692" data-name="Rectangle 10692" transform="translate(168.313 23.641)" fill="#f87f2e" stroke="#707070" stroke-width="1">
        <rect width="42" height="41" rx="20.5" stroke="none"/>
        <rect x="0.5" y="0.5" width="41" height="40" rx="20" fill="none"/>
      </g>
      <g id="Group_9274" data-name="Group 9274">
        <rect id="Rectangle_10670" data-name="Rectangle 10670" width="210" height="84" rx="12" transform="translate(0.313 -0.359)" fill="#aeffe9"/>
        <g id="Group_9272" data-name="Group 9272" transform="translate(24.005 23.161)">
          <g id="Apple_g" data-name="Apple g" transform="translate(0 0)">
            <path id="Download_on_the" data-name="Download on the" d="M3.915-6.148A5.367,5.367,0,0,1,7.577-5.02a3.964,3.964,0,0,1,1.28,3.138A4.163,4.163,0,0,1,7.615,1.3a5.374,5.374,0,0,1-3.8,1.171H.873V-6.148Zm3.435,4.3Q7.349-4.8,3.864-4.8h-1.5V1.1h1.66A3.641,3.641,0,0,0,6.494.357,2.763,2.763,0,0,0,7.349-1.844ZM12.159.739a2.077,2.077,0,0,0,1.527.6,2.077,2.077,0,0,0,1.527-.6,2.087,2.087,0,0,0,.6-1.548,2.087,2.087,0,0,0-.6-1.548,2.077,2.077,0,0,0-1.527-.6,2.077,2.077,0,0,0-1.527.6,2.087,2.087,0,0,0-.6,1.548A2.087,2.087,0,0,0,12.159.739Zm4.062.851a3.5,3.5,0,0,1-2.535.98,3.5,3.5,0,0,1-2.535-.98,3.208,3.208,0,0,1-1.014-2.4,3.208,3.208,0,0,1,1.014-2.4,3.5,3.5,0,0,1,2.535-.98,3.5,3.5,0,0,1,2.535.98,3.208,3.208,0,0,1,1.014,2.4A3.208,3.208,0,0,1,16.221,1.59Zm5.691.882H20.289l-2.332-6.56h1.47L21.1.868l1.673-4.957h1.47L25.917.868,27.59-4.089h1.47l-2.332,6.56H25.105l-1.6-4.488ZM31.734-1.08V2.471H30.314v-6.56h1.419v1.2a2.49,2.49,0,0,1,.944-.949,2.568,2.568,0,0,1,1.3-.345,2.545,2.545,0,0,1,1.844.678,2.6,2.6,0,0,1,.7,1.961v4.02H35.105v-3.6q0-1.813-1.546-1.813a1.887,1.887,0,0,0-1.28.475A1.741,1.741,0,0,0,31.734-1.08Zm8.187,3.551H38.5V-6.678h1.419ZM43.552.739a2.077,2.077,0,0,0,1.527.6,2.077,2.077,0,0,0,1.527-.6,2.087,2.087,0,0,0,.6-1.548,2.087,2.087,0,0,0-.6-1.548,2.077,2.077,0,0,0-1.527-.6,2.077,2.077,0,0,0-1.527.6,2.087,2.087,0,0,0-.6,1.548A2.087,2.087,0,0,0,43.552.739Zm4.062.851a3.5,3.5,0,0,1-2.535.98,3.5,3.5,0,0,1-2.535-.98,3.208,3.208,0,0,1-1.014-2.4,3.208,3.208,0,0,1,1.014-2.4,3.5,3.5,0,0,1,2.535-.98,3.5,3.5,0,0,1,2.535.98,3.208,3.208,0,0,1,1.014,2.4A3.208,3.208,0,0,1,47.614,1.59Zm8.086.882H54.407V1.6a2.807,2.807,0,0,1-2.243.974,2.618,2.618,0,0,1-1.743-.58A1.918,1.918,0,0,1,49.731.443a1.615,1.615,0,0,1,.735-1.449,3.6,3.6,0,0,1,1.99-.481h1.838v-.247q0-1.307-1.5-1.307a3.57,3.57,0,0,0-1.952.666l-.634-.863A4.442,4.442,0,0,1,53-4.187a3.08,3.08,0,0,1,1.945.586A2.188,2.188,0,0,1,55.7-1.758ZM54.281.03V-.525h-1.6q-1.534,0-1.534.937a.827.827,0,0,0,.38.734,1.9,1.9,0,0,0,1.058.253,1.956,1.956,0,0,0,1.185-.37A1.173,1.173,0,0,0,54.281.03Zm6.147,2.54A3.075,3.075,0,0,1,58.2,1.633a3.309,3.309,0,0,1-.951-2.466,3.183,3.183,0,0,1,.976-2.442,3.288,3.288,0,0,1,2.326-.912,2.579,2.579,0,0,1,2.174,1.11v-3.6h1.419V2.471H62.721V1.485A2.655,2.655,0,0,1,60.428,2.57ZM58.666-.778A2.025,2.025,0,0,0,59.287.757a2.044,2.044,0,0,0,1.457.592,1.908,1.908,0,0,0,1.419-.6,2.107,2.107,0,0,0,.583-1.535,2.216,2.216,0,0,0-.583-1.566,1.877,1.877,0,0,0-1.432-.629,1.957,1.957,0,0,0-1.457.629A2.171,2.171,0,0,0,58.666-.778ZM71.245.739a2.077,2.077,0,0,0,1.527.6A2.077,2.077,0,0,0,74.3.739a2.087,2.087,0,0,0,.6-1.548,2.087,2.087,0,0,0-.6-1.548,2.077,2.077,0,0,0-1.527-.6,2.077,2.077,0,0,0-1.527.6,2.087,2.087,0,0,0-.6,1.548A2.087,2.087,0,0,0,71.245.739Zm4.062.851a3.5,3.5,0,0,1-2.535.98,3.5,3.5,0,0,1-2.535-.98,3.208,3.208,0,0,1-1.014-2.4,3.208,3.208,0,0,1,1.014-2.4,3.5,3.5,0,0,1,2.535-.98,3.5,3.5,0,0,1,2.535.98,3.208,3.208,0,0,1,1.014,2.4A3.208,3.208,0,0,1,75.307,1.59ZM79.35-1.08V2.471H77.93v-6.56H79.35v1.2a2.49,2.49,0,0,1,.944-.949,2.568,2.568,0,0,1,1.3-.345,2.545,2.545,0,0,1,1.844.678,2.6,2.6,0,0,1,.7,1.961v4.02H82.721v-3.6q0-1.813-1.546-1.813a1.887,1.887,0,0,0-1.28.475A1.741,1.741,0,0,0,79.35-1.08Zm11.989-1.9V.351a1.063,1.063,0,0,0,.253.746.913.913,0,0,0,.71.277,1.221,1.221,0,0,0,.874-.432l.583.974a2.456,2.456,0,0,1-1.654.654,2.159,2.159,0,0,1-1.546-.61A2.167,2.167,0,0,1,89.92.314V-2.979H89.07v-1.11h.849V-6.148h1.419v2.059h1.774v1.11Zm4.968,1.9V2.471H94.888V-6.666h1.419v3.773a2.215,2.215,0,0,1,.919-.949,2.66,2.66,0,0,1,1.324-.345,2.545,2.545,0,0,1,1.844.678,2.6,2.6,0,0,1,.7,1.961v4.02H99.678v-3.6q0-1.813-1.546-1.813a1.887,1.887,0,0,0-1.28.475A1.741,1.741,0,0,0,96.307-1.08ZM109.349-.2h-5.285a1.486,1.486,0,0,0,.672,1.153,2.4,2.4,0,0,0,1.419.438A2.385,2.385,0,0,0,108.081.61l.811.863a3.826,3.826,0,0,1-2.839,1.1,3.431,3.431,0,0,1-2.414-.919,3.194,3.194,0,0,1-.995-2.466,3.145,3.145,0,0,1,1.014-2.46,3.455,3.455,0,0,1,2.389-.912,3.518,3.518,0,0,1,2.338.808,2.748,2.748,0,0,1,.963,2.226Zm-5.285-1.085h3.866a1.561,1.561,0,0,0-.532-1.27A1.979,1.979,0,0,0,106.085-3a2.286,2.286,0,0,0-1.4.462A1.479,1.479,0,0,0,104.064-1.289Z" transform="translate(52.411 10.358)" fill="#191919" opacity="0.7"/>
            <path id="App_Store" data-name="App Store" d="M3.588.613,2.307,3.445H0L5.638-9.005H7.945l5.638,12.45H11.277L10,.613ZM9.117-1.329,6.792-6.458,4.467-1.329ZM20.284-6.173a4.7,4.7,0,0,1,3.35,1.318,4.606,4.606,0,0,1,1.391,3.509,4.8,4.8,0,0,1-1.382,3.562,4.433,4.433,0,0,1-3.222,1.371,4.43,4.43,0,0,1-3.3-1.567V6.9h-2.05V-6.031h2.05v1.656A3.667,3.667,0,0,1,20.284-6.173Zm-3.2,4.9A3.044,3.044,0,0,0,17.922.942a2.755,2.755,0,0,0,2.05.864A2.953,2.953,0,0,0,22.078.951a2.925,2.925,0,0,0,.9-2.217A3.106,3.106,0,0,0,22.1-3.528a2.839,2.839,0,0,0-2.105-.9,2.723,2.723,0,0,0-2.069.9A3.168,3.168,0,0,0,17.08-1.275Zm15.506-4.9a4.7,4.7,0,0,1,3.35,1.318,4.606,4.606,0,0,1,1.391,3.509,4.8,4.8,0,0,1-1.382,3.562,4.433,4.433,0,0,1-3.222,1.371,4.43,4.43,0,0,1-3.3-1.567V6.9h-2.05V-6.031h2.05v1.656A3.667,3.667,0,0,1,32.586-6.173Zm-3.2,4.9A3.044,3.044,0,0,0,30.224.942a2.755,2.755,0,0,0,2.05.864A2.953,2.953,0,0,0,34.38.951a2.925,2.925,0,0,0,.9-2.217A3.106,3.106,0,0,0,34.4-3.528a2.839,2.839,0,0,0-2.105-.9,2.723,2.723,0,0,0-2.069.9A3.168,3.168,0,0,0,29.382-1.275ZM48.851-7.367a2.9,2.9,0,0,0-1.547.374,1.241,1.241,0,0,0-.6,1.131A1.3,1.3,0,0,0,47.3-4.7a9.291,9.291,0,0,0,2.572.864,7.162,7.162,0,0,1,2.966,1.3,3.038,3.038,0,0,1,1,2.467,3.234,3.234,0,0,1-1.263,2.645,5.129,5.129,0,0,1-3.314,1.015,7.906,7.906,0,0,1-5.327-2.013L45.291-.011a6.189,6.189,0,0,0,4.027,1.639,2.807,2.807,0,0,0,1.657-.436A1.355,1.355,0,0,0,51.588.034a1.289,1.289,0,0,0-.577-1.122,6.165,6.165,0,0,0-1.986-.73,18.244,18.244,0,0,1-2.142-.606,4.874,4.874,0,0,1-1.3-.721A2.978,2.978,0,0,1,44.449-5.71a3.092,3.092,0,0,1,1.291-2.663,5.3,5.3,0,0,1,3.195-.935,7.85,7.85,0,0,1,2.435.392,6.42,6.42,0,0,1,2.087,1.1L52.3-6.227a4.4,4.4,0,0,0-1.538-.819A6.073,6.073,0,0,0,48.851-7.367Zm9.675,2.939V.381a1.536,1.536,0,0,0,.366,1.078,1.319,1.319,0,0,0,1.025.4,1.764,1.764,0,0,0,1.263-.623l.842,1.407a3.548,3.548,0,0,1-2.389.944A3.119,3.119,0,0,1,57.4,2.706,3.131,3.131,0,0,1,56.476.328V-4.428H55.25v-1.6h1.227V-9.005h2.05v2.974h2.563v1.6ZM65.858.942a3,3,0,0,0,2.206.864A3,3,0,0,0,70.27.942a3.014,3.014,0,0,0,.87-2.235,3.014,3.014,0,0,0-.87-2.235,3,3,0,0,0-2.206-.864,3,3,0,0,0-2.206.864,3.014,3.014,0,0,0-.87,2.235A3.014,3.014,0,0,0,65.858.942Zm5.867,1.229a5.058,5.058,0,0,1-3.661,1.416A5.058,5.058,0,0,1,64.4,2.171a4.633,4.633,0,0,1-1.465-3.464A4.633,4.633,0,0,1,64.4-4.757a5.058,5.058,0,0,1,3.661-1.416,5.058,5.058,0,0,1,3.661,1.416A4.633,4.633,0,0,1,73.19-1.293,4.633,4.633,0,0,1,71.726,2.171Zm8.9-6.332a2.754,2.754,0,0,0-2.288.962,4.019,4.019,0,0,0-.769,2.583V3.445h-2.05V-6.031h2.05v1.906a4.17,4.17,0,0,1,1.346-1.461,3.3,3.3,0,0,1,1.8-.588l.018,2.013ZM91.845-.42H84.211a2.147,2.147,0,0,0,.97,1.665,3.471,3.471,0,0,0,2.05.632A3.445,3.445,0,0,0,90.014.755L91.186,2a5.526,5.526,0,0,1-4.1,1.585A4.955,4.955,0,0,1,83.6,2.26,4.614,4.614,0,0,1,82.16-1.3a4.543,4.543,0,0,1,1.465-3.553,4.991,4.991,0,0,1,3.451-1.318,5.082,5.082,0,0,1,3.378,1.167,3.97,3.97,0,0,1,1.391,3.215ZM84.211-1.988h5.584a2.254,2.254,0,0,0-.769-1.835,2.859,2.859,0,0,0-1.895-.641,3.3,3.3,0,0,0-2.023.668A2.136,2.136,0,0,0,84.211-1.988Z" transform="translate(51.951 29.662)" fill="#191919"/>
            <path id="logo" d="M8.964,34.3c-2.126,0-3.735-2.054-5.332-4.343A21.523,21.523,0,0,1,.284,21.69c-.435-2.449-.586-6,1.162-9.014A8.764,8.764,0,0,1,4.483,9.564a8.178,8.178,0,0,1,4.1-1.189h.087a9.675,9.675,0,0,1,3.473.883,6.6,6.6,0,0,0,2.139.61,6.723,6.723,0,0,0,2.068-.6,11.225,11.225,0,0,1,3.993-1c.186,0,.371.009.55.027a8.025,8.025,0,0,1,6.312,3.4l-.027.017a7.682,7.682,0,0,0-3.7,6.516A7.567,7.567,0,0,0,28.1,25.16l.009,0L28.1,25.2a18.8,18.8,0,0,1-2.38,4.845C24.376,32,22.85,34.211,20.439,34.256h-.1a5.975,5.975,0,0,1-2.569-.642,6.93,6.93,0,0,0-3.026-.72,7.365,7.365,0,0,0-3.175.743,6.586,6.586,0,0,1-2.482.661Zm5.4-26.382c-.117,0-.235,0-.35-.013A7.125,7.125,0,0,1,15.845,2.6,7.735,7.735,0,0,1,20.929,0a7.548,7.548,0,0,1-1.8,5.479A6.5,6.5,0,0,1,14.362,7.919Z" transform="translate(0 0)" fill="#191919"/>
          </g>
        </g>
      </g>
    </g>
  </g>
</svg>
