<svg xmlns="http://www.w3.org/2000/svg" width="210" height="84" viewBox="0 0 210 84">
  <g id="Group_9289" data-name="Group 9289" transform="translate(-0.494 0.359)">
    <rect id="Rectangle_10695" data-name="Rectangle 10695" width="210" height="84" rx="23" transform="translate(0.494 -0.359)" fill="#00002d"/>
    <g id="Group_9280" data-name="Group 9280" transform="translate(0)">
      <rect id="Rectangle_10693" data-name="Rectangle 10693" width="42" height="41" rx="20.5" transform="translate(0.494 23.641)" fill="#21e27b"/>
      <g id="Group_9273" data-name="Group 9273">
        <rect id="Rectangle_10671" data-name="Rectangle 10671" width="210" height="84" rx="12" transform="translate(0.494 -0.359)" fill="#fdffb6"/>
        <g id="Group_9271" data-name="Group 9271" transform="translate(31.84 23.742)">
          <g id="Group_1095" data-name="Group 1095" transform="translate(56.985 1.63)">
            <path id="Download_on" data-name="Download on" d="M7.105-1.574H8.586v3A4.552,4.552,0,0,1,5.035,2.793a4.478,4.478,0,0,1-3.256-1.28A4.332,4.332,0,0,1,.468-1.724,4.372,4.372,0,0,1,1.8-4.987a4.455,4.455,0,0,1,3.231-1.3,4.593,4.593,0,0,1,3.149,1.1l-.79,1.129a3.079,3.079,0,0,0-1.035-.609,3.919,3.919,0,0,0-1.211-.169,3.116,3.116,0,0,0-2.233.859,2.974,2.974,0,0,0-.9,2.259A2.977,2.977,0,0,0,2.89.528a2.952,2.952,0,0,0,2.127.847A3.793,3.793,0,0,0,7.105.835ZM16.541-.03H11.309a1.521,1.521,0,0,0,.665,1.173,2.334,2.334,0,0,0,1.405.445A2.331,2.331,0,0,0,15.286.8l.8.878a3.733,3.733,0,0,1-2.811,1.117,3.345,3.345,0,0,1-2.39-.935A3.3,3.3,0,0,1,9.9-.651a3.244,3.244,0,0,1,1-2.5,3.369,3.369,0,0,1,2.365-.928,3.425,3.425,0,0,1,2.315.822A2.832,2.832,0,0,1,16.541-1Zm-5.232-1.1h3.827a1.609,1.609,0,0,0-.527-1.292,1.926,1.926,0,0,0-1.3-.452,2.223,2.223,0,0,0-1.386.471A1.519,1.519,0,0,0,11.309-1.135Zm8.457-1.719V.534a1.1,1.1,0,0,0,.251.759.891.891,0,0,0,.7.282,1.2,1.2,0,0,0,.866-.439l.577.991a2.4,2.4,0,0,1-1.637.665,2.107,2.107,0,0,1-1.531-.621A2.238,2.238,0,0,1,18.36.5v-3.35H17.52V-3.983h.841v-2.1h1.405v2.1h1.757v1.129Zm8.356,5.546H26.717V-3.983h1.405ZM26.8-5.313a.857.857,0,0,1-.263-.627.857.857,0,0,1,.263-.627.857.857,0,0,1,.627-.263.857.857,0,0,1,.627.263.857.857,0,0,1,.263.627.857.857,0,0,1-.263.627.857.857,0,0,1-.627.263A.857.857,0,0,1,26.8-5.313Zm5.082,2.459V.534a1.1,1.1,0,0,0,.251.759.891.891,0,0,0,.7.282,1.2,1.2,0,0,0,.866-.439l.577.991a2.4,2.4,0,0,1-1.637.665,2.107,2.107,0,0,1-1.531-.621A2.238,2.238,0,0,1,30.481.5v-3.35H29.64V-3.983h.841v-2.1h1.405v2.1h1.757v1.129ZM40.4.929a2.026,2.026,0,0,0,1.512.609A2.026,2.026,0,0,0,43.424.929a2.155,2.155,0,0,0,.6-1.575,2.155,2.155,0,0,0-.6-1.575,2.026,2.026,0,0,0-1.512-.609A2.026,2.026,0,0,0,40.4-2.22a2.155,2.155,0,0,0-.6,1.575A2.155,2.155,0,0,0,40.4.929Zm4.021.866a3.416,3.416,0,0,1-2.509,1,3.416,3.416,0,0,1-2.509-1,3.309,3.309,0,0,1-1-2.44,3.309,3.309,0,0,1,1-2.44,3.416,3.416,0,0,1,2.509-1,3.416,3.416,0,0,1,2.509,1,3.309,3.309,0,0,1,1,2.44A3.309,3.309,0,0,1,44.421,1.8Zm4-2.716V2.692H47.018V-3.983h1.405v1.217a2.5,2.5,0,0,1,.935-.966,2.489,2.489,0,0,1,1.286-.351,2.481,2.481,0,0,1,1.826.69,2.687,2.687,0,0,1,.7,2v4.09H51.761V-.971q0-1.844-1.531-1.844a1.839,1.839,0,0,0-1.267.483A1.8,1.8,0,0,0,48.424-.921Z" transform="translate(-0.468 6.831)" fill="#191919" opacity="0.7"/>
            <path id="play" d="M5.611-8.867a6.511,6.511,0,0,1,4.2,1.106,4.19,4.19,0,0,1,1.323,3.407A4.039,4.039,0,0,1,9.788-.983,6.621,6.621,0,0,1,5.647.086H3.4V3.8H1.261V-8.867Zm.272,7.014a3.308,3.308,0,0,0,2.42-.68,2.8,2.8,0,0,0,.643-1.994A2.066,2.066,0,0,0,8.13-6.384a4.7,4.7,0,0,0-2.555-.544H3.4v5.075ZM15.4,3.8h-2.03V-9.646H15.4Zm10.747,0H24.3V2.515a3.966,3.966,0,0,1-3.208,1.432A3.68,3.68,0,0,1,18.6,3.1,2.853,2.853,0,0,1,17.609.82a2.394,2.394,0,0,1,1.051-2.13,5.034,5.034,0,0,1,2.845-.707h2.628v-.362q0-1.921-2.139-1.921a5.014,5.014,0,0,0-2.791.979L18.3-4.589a6.242,6.242,0,0,1,3.987-1.4,4.322,4.322,0,0,1,2.782.861,3.259,3.259,0,0,1,1.078,2.71ZM24.115.213V-.6H21.832Q19.639-.6,19.639.775a1.225,1.225,0,0,0,.544,1.078,2.656,2.656,0,0,0,1.513.372,2.746,2.746,0,0,0,1.695-.544A1.74,1.74,0,0,0,24.115.213Zm5.963,7.431a3.492,3.492,0,0,1-2.392-.961l.924-1.649a1.912,1.912,0,0,0,1.314.6,1.4,1.4,0,0,0,1.106-.489,1.6,1.6,0,0,0,.426-1.069q0-.254-3.9-9.914h2.175l2.882,7.1L35.5-5.84h2.175L33,5.614A3.483,3.483,0,0,1,31.8,7.1,2.943,2.943,0,0,1,30.078,7.644ZM48.356-7.2a2.807,2.807,0,0,0-1.531.381,1.272,1.272,0,0,0-.6,1.151,1.338,1.338,0,0,0,.6,1.178,9.034,9.034,0,0,0,2.546.879,7,7,0,0,1,2.936,1.323,3.134,3.134,0,0,1,.988,2.51,3.326,3.326,0,0,1-1.251,2.691,4.984,4.984,0,0,1-3.28,1.033A7.706,7.706,0,0,1,43.489,1.9L44.831.286a6.038,6.038,0,0,0,3.987,1.667,2.722,2.722,0,0,0,1.64-.444A1.39,1.39,0,0,0,51.065.331a1.323,1.323,0,0,0-.571-1.142,6,6,0,0,0-1.966-.743,17.687,17.687,0,0,1-2.12-.616A4.79,4.79,0,0,1,45.121-2.9,3.065,3.065,0,0,1,44-5.514a3.177,3.177,0,0,1,1.278-2.71,5.147,5.147,0,0,1,3.163-.952,7.58,7.58,0,0,1,2.41.4,6.3,6.3,0,0,1,2.066,1.124L51.772-6.039a4.318,4.318,0,0,0-1.522-.834A5.865,5.865,0,0,0,48.356-7.2Zm9.578,2.99V.685a1.59,1.59,0,0,0,.362,1.1,1.287,1.287,0,0,0,1.015.408,1.728,1.728,0,0,0,1.251-.634L61.4,2.986a3.46,3.46,0,0,1-2.365.961,3.043,3.043,0,0,1-2.211-.9A3.233,3.233,0,0,1,55.9.63V-4.209H54.69V-5.84H55.9V-8.867h2.03V-5.84h2.537v1.631Zm7.259,5.464a2.927,2.927,0,0,0,2.184.879,2.927,2.927,0,0,0,2.184-.879,3.113,3.113,0,0,0,.861-2.275,3.113,3.113,0,0,0-.861-2.275,2.927,2.927,0,0,0-2.184-.879,2.927,2.927,0,0,0-2.184.879,3.113,3.113,0,0,0-.861,2.275A3.113,3.113,0,0,0,65.193,1.255ZM71,2.506a4.934,4.934,0,0,1-3.625,1.441,4.934,4.934,0,0,1-3.625-1.441A4.779,4.779,0,0,1,62.3-1.019a4.779,4.779,0,0,1,1.45-3.525,4.934,4.934,0,0,1,3.625-1.441A4.934,4.934,0,0,1,71-4.544a4.779,4.779,0,0,1,1.45,3.525A4.779,4.779,0,0,1,71,2.506ZM79.81-3.937a2.693,2.693,0,0,0-2.265.979A4.169,4.169,0,0,0,76.783-.33V3.8h-2.03V-5.84h2.03V-3.9a4.2,4.2,0,0,1,1.332-1.486,3.209,3.209,0,0,1,1.785-.6l.018,2.048ZM90.919-.131H83.362a2.2,2.2,0,0,0,.961,1.695,3.372,3.372,0,0,0,2.03.643,3.366,3.366,0,0,0,2.755-1.142l1.16,1.269a5.392,5.392,0,0,1-4.06,1.613A4.832,4.832,0,0,1,82.755,2.6a4.761,4.761,0,0,1-1.423-3.625,4.686,4.686,0,0,1,1.45-3.616A4.866,4.866,0,0,1,86.2-5.985,4.947,4.947,0,0,1,89.542-4.8a4.091,4.091,0,0,1,1.377,3.271ZM83.362-1.726H88.89a2.324,2.324,0,0,0-.761-1.867,2.782,2.782,0,0,0-1.876-.652,3.211,3.211,0,0,0-2,.68A2.194,2.194,0,0,0,83.362-1.726Z" transform="translate(0.088 26.309)" fill="#191919"/>
          </g>
          <path id="Path" d="M0,32.516V2.391A2.652,2.652,0,0,1,1.545,0L19.572,17.449,1.538,34.9A2.652,2.652,0,0,1,0,32.516Z" transform="translate(0)" fill="#29b6f6"/>
          <path id="Path-2" data-name="Path" d="M19.711,4.032,0,15.047,15.546,0Z" transform="translate(5.58 18.952)" fill="#e94033"/>
          <path id="Path-3" data-name="Path" d="M8.739,2.325a2.607,2.607,0,0,1,.03,4.2L4.582,8.866,0,4.432,4.579,0Z" transform="translate(22.679 13.017)" fill="#f8e300"/>
          <path id="Path-4" data-name="Path" d="M0,0,19.7,11.007l-4.162,4.029Z" transform="translate(5.592 0.909)" fill="#0ae77b"/>
        </g>
      </g>
    </g>
  </g>
</svg>
